# xmcd CD database file
#
# Track frame offsets:
#	150
#	20196
#	42359
#	64069
#	85512
#	107060
#	128898
#	147659
#
# Disc length: 2253 seconds
#
# Revision: 0
# Processed by: cddbd v1.5.1PL2 Copyright (c) Steve Scherf et al.
# Submitted via: CDex 1.51
#
DISCID=7008cb08
DTITLE=Frankie Ruiz - Mi Libertad
DYEAR=1992
DGENRE=Salsa
TTITLE0=Mi Libertad
TTITLE1=Esta Vez Si Voy Pa'Encima
TTITLE2=No Supiste Esperar
TTITLE3=Otra Vez
TTITLE4=Voy a Estrenar
TTITLE5=Bailando
TTITLE6=Ella Tiene Que Saber
TTITLE7=¿Quién Es Tu Amigo?
EXTD=YEAR: 1992
EXTT0=
EXTT1=
EXTT2=
EXTT3=
EXTT4=
EXTT5=
EXTT6=
EXTT7=
PLAYORDER=
